<svg xmlns="http://www.w3.org/2000/svg" width="72" height="72" fill="none"><path fill="#E6E6E6" d="M0 8.1C0 3.64 3.63 0 8.1 0h55.8C68.36 0 72 3.63 72 8.1v55.8c0 4.47-3.63 8.1-8.1 8.1H0V8.1z"/><path fill="#30f" fill-rule="evenodd" d="M0 66.48v-44.8c2.57-3 5.77-5.6 9.6-7.8 8.08-4.65 16.3-5.63 24.65-2.93 8.44 2.66 14.97 8.2 19.6 16.6 1.04 1.9 1.95 3.98 2.74 6.3v2.7l-39.3 23.2c5.37 4.04 11.74 3.93 19.13-.33 5.44-3.13 8.5-7.38 9.24-12.74l15.18.15c0 .13 0 .26 0 .4 0 .3-.02.62-.04.93C60.37 57.02 55.5 65.9 48.1 72H4.63C2.95 70.38 1.4 68.53 0 66.48zm35.67-35.4c-2.37-2.07-4.94-3.26-7.7-3.56-3.54-.44-6.93.27-10.16 2.13-3.8 2.2-6.4 5.04-7.78 8.5-1.08 2.57-1.4 5.32-1 8.27l26.65-15.35z" clip-rule="evenodd"/><path fill="#FF323E" fill-rule="evenodd" d="M44.7 72H0V21.7c2.57-3 5.77-5.6 9.6-7.82 8.08-4.65 16.3-5.63 24.65-2.93 8.44 2.66 14.97 8.2 19.6 16.6 1.04 1.9 1.95 3.98 2.74 6.3L15.06 57.78c5.8 5.96 12.92 6.5 21.36 1.64 5.44-3.13 8.5-7.38 9.24-12.74l15.18.15C59.88 57.57 54.5 65.95 44.7 72zm-7.97-41.54L8.63 46.64c-1.17-4.07-1.05-7.8.37-11.2 1.38-3.46 3.98-6.3 7.8-8.5 3.23-1.85 6.6-2.56 10.14-2.13 3.6.4 6.87 2.3 9.8 5.66z" clip-rule="evenodd"/></svg>