<svg xmlns="http://www.w3.org/2000/svg" width="166" height="39" fill="none"><path d="M63.68 10.1c3.08 0 5.53 1.03 7.35 3.06 1.86 2.03 2.8 4.74 2.8 8.15v16.76H66.9V21.8c0-1.63-.4-2.9-1.18-3.8-.78-.9-1.9-1.36-3.32-1.36-1.58 0-2.8.52-3.7 1.57-.86 1.06-1.3 2.6-1.3 4.58v15.28h-6.9V21.8c0-1.63-.4-2.9-1.2-3.8-.78-.9-1.9-1.36-3.32-1.36-1.54 0-2.77.52-3.7 1.57-.9 1.06-1.34 2.6-1.34 4.58v15.28h-6.92v-27.2h6.92v2.9c1.6-2.43 4.1-3.65 7.46-3.65 3.3 0 5.72 1.32 7.3 3.93 1.78-2.6 4.44-3.92 7.98-3.92zM100.4 34.7c-2.75 2.74-6.1 4.12-10.08 4.12-3.97 0-7.33-1.38-10.08-4.13-2.72-2.8-4.08-6.2-4.08-10.23s1.36-7.42 4.08-10.17c2.75-2.8 6.1-4.2 10.08-4.2 3.97 0 7.33 1.4 10.1 4.2 2.74 2.75 4.12 6.14 4.12 10.17 0 4.02-1.38 7.43-4.13 10.22zm-15.28-4.85c1.4 1.4 3.13 2.12 5.2 2.12 2.08 0 3.8-.7 5.2-2.12 1.4-1.42 2.1-3.2 2.1-5.38 0-2.18-.7-3.97-2.1-5.4-1.4-1.4-3.12-2.1-5.2-2.1-2.07 0-3.8.7-5.2 2.1-1.36 1.43-2.04 3.22-2.04 5.4 0 2.17.68 3.96 2.04 5.38zM127.6 0h6.9v38.06h-6.9v-3.2c-2.05 2.64-4.94 3.96-8.7 3.96-3.6 0-6.7-1.38-9.28-4.13-2.54-2.8-3.8-6.2-3.8-10.23s1.26-7.42 3.8-10.17c2.58-2.8 5.67-4.2 9.28-4.2 3.76 0 6.65 1.34 8.7 3.98V0zM114.8 30c1.44 1.42 3.22 2.13 5.37 2.13 2.13 0 3.9-.7 5.3-2.12 1.4-1.44 2.1-3.3 2.1-5.53 0-2.25-.7-4.08-2.1-5.5-1.4-1.45-3.17-2.17-5.3-2.17-2.16 0-3.95.72-5.38 2.17-1.4 1.42-2.1 3.25-2.1 5.5 0 2.24.7 4.1 2.1 5.54zM159.08 10.87H166v27.2h-6.92v-3.22c-2.07 2.65-5 3.97-8.74 3.97-3.58 0-6.66-1.38-9.23-4.13-2.53-2.8-3.8-6.2-3.8-10.23s1.27-7.42 3.8-10.17c2.58-2.8 5.66-4.2 9.24-4.2 3.75 0 6.67 1.34 8.74 3.98v-3.2zM146.3 30c1.4 1.42 3.18 2.13 5.32 2.13 2.15 0 3.92-.7 5.3-2.12 1.45-1.44 2.16-3.3 2.16-5.53 0-2.25-.72-4.08-2.15-5.5-1.4-1.45-3.16-2.17-5.3-2.17-2.15 0-3.92.72-5.32 2.17-1.38 1.42-2.08 3.25-2.08 5.5 0 2.24.7 4.1 2.1 5.54zM10.2 30.32c2.42 2.5 5.4 2.72 8.94.68 2.28-1.3 3.56-3.08 3.87-5.33l6.36.07c-.42 4.67-2.84 8.28-7.27 10.83-3.82 2.2-7.53 2.78-11.14 1.76C7.36 37.3 4.56 35 2.6 31.4.63 27.86.14 24.25 1.1 20.58c.96-3.7 3.22-6.57 6.8-8.63 3.37-1.95 6.8-2.36 10.3-1.22 3.54 1.1 6.27 3.43 8.2 6.95.45.78.83 1.66 1.16 2.63L10.2 30.32zm-2.7-4.66l11.76-6.78c-1.22-1.4-2.58-2.2-4.1-2.36-1.47-.2-2.9.1-4.24.9-1.6.9-2.68 2.1-3.26 3.55-.6 1.42-.65 2.98-.15 4.7z"/></svg>