<svg xmlns="http://www.w3.org/2000/svg" viewBox="0 0 60 68" enable-background="new 0 0 60 68"><style type="text/css">.st0{filter:url(#ae96eeecd750ec2a83543f00c9bc789d__a);} .st1{fill:#FF0000;} .st2{fill:#FFFFFF;}</style><filter id="ae96eeecd750ec2a83543f00c9bc789d__a" width="143.5%" height="138.5%" x="-21.7%" y="-15.4%" filterUnits="objectBoundingBox"><feGaussianBlur in="SourceGraphic" stdDeviation="3"/><feOffset dy="2"/><feComponentTransfer><feFuncA slope=".3" type="linear"/></feComponentTransfer></filter><g class="st0"><path id="ae96eeecd750ec2a83543f00c9bc789d__b_2_" d="M30.5 56.5c0 .3-.2.5-.5.5s-.5-.2-.5-.5c-.1-3.2-1.8-5.2-4.8-6.1C14.5 48 7 38.9 7 28 7 15.3 17.3 5 30 5s23 10.3 23 23c0 10.9-7.5 20-17.7 22.4-3 .9-4.6 3-4.8 6.1z" class="st1"/></g><path id="ae96eeecd750ec2a83543f00c9bc789d__b_1_" d="M30.5 56.5c0 .3-.2.5-.5.5s-.5-.2-.5-.5c-.1-3.2-1.8-5.2-4.8-6.1C14.5 48 7 38.9 7 28 7 15.3 17.3 5 30 5s23 10.3 23 23c0 10.9-7.5 20-17.7 22.4-3 .9-4.6 3-4.8 6.1z" class="st1"/><path d="M30 68c-2.2 0-4-1.8-4-4s1.8-4 4-4 4 1.8 4 4-1.8 4-4 4z" class="st2"/><path d="M30 66c1.1 0 2-.8 2-2s-.8-2-2-2c0 0-.1 0-.1 0-1.1 0-2 .9-2 2 .2 1.1 1 2 2.1 2z" class="st1"/><ellipse cx="30" cy="27.9" class="st2" rx="4.8" ry="4.6"/></svg>