<svg xmlns="http://www.w3.org/2000/svg" width="24" height="28" fill="none"><path fill="#404266" d="M11.8 15.1c.04 0 .06 0 .1 0 0 0 .02 0 .03 0 .02 0 .05 0 .06 0 1.7-.04 3.07-.64 4.08-1.78 2.23-2.52 1.86-6.83 1.82-7.24-.14-3.1-1.6-4.57-2.8-5.26-.9-.52-1.96-.8-3.13-.82h-.04s-.02 0-.02 0h-.03c-.64 0-1.9.1-3.12.8-1.22.68-2.7 2.16-2.85 5.28-.04.4-.4 4.72 1.82 7.24 1 1.14 2.4 1.74 4.1 1.77zM7.46 6.2c0-.02 0-.03 0-.04.2-4.16 3.15-4.6 4.4-4.6h.04s.02 0 .03 0c1.57.03 4.23.66 4.4 4.6 0 0 0 .03.02.04 0 .04.4 4-1.44 6.06-.72.82-1.7 1.23-2.97 1.24 0 0-.02 0-.03 0 0 0-.02 0-.03 0-1.27 0-2.25-.42-2.98-1.24-1.85-2.06-1.45-6.02-1.45-6.06zM23.82 22.24c0-.06 0-.1 0-.16-.05-1.15-.12-3.83-2.64-4.7 0 0-.04 0-.06 0-2.6-.68-4.78-2.18-4.8-2.2-.36-.25-.85-.16-1.1.2-.25.35-.16.83.2 1.08.1.07 2.4 1.68 5.3 2.42 1.34.48 1.5 1.92 1.53 3.25 0 .05 0 .1 0 .14 0 .52-.02 1.33-.12 1.8-.94.53-4.62 2.37-10.22 2.37-5.57 0-9.27-1.85-10.22-2.38-.1-.47-.13-1.27-.12-1.8 0-.04 0-.1 0-.14.05-1.32.2-2.77 1.55-3.25 2.9-.74 5.2-2.35 5.3-2.4.36-.26.44-.75.2-1.1-.25-.36-.74-.45-1.1-.2-.02.02-2.18 1.53-4.8 2.2-.03 0-.05 0-.07 0-2.5.88-2.6 3.56-2.62 4.7 0 .06 0 .1 0 .15 0 0 0 0 0 .02 0 .3 0 1.85.3 2.62.06.15.16.28.3.37.17.1 4.34 2.77 11.32 2.77 6.97 0 11.14-2.66 11.32-2.77.13-.1.24-.22.3-.37.3-.77.28-2.32.28-2.62z"/></svg>