<svg xmlns="http://www.w3.org/2000/svg" width="47" height="59" fill="none"><path fill="#DCDCDC" d="M58 18.35L21.7 3.4c-3.24-1.33-6.98.27-8.34 3.57L2.94 32.27c-1.36 3.32.16 7.1 3.4 8.42l36.3 14.94c3.23 1.33 6.97-.27 8.33-3.58l10.42-25.3c1.36-3.3-.16-7.08-3.4-8.4zm-9.7 32.6c-.74 1.8-2.77 2.68-4.53 1.95L7.47 37.95c-1.76-.72-2.6-2.77-1.85-4.56L16.04 8.1c.74-1.8 2.77-2.68 4.53-1.95l36.3 14.94c1.75.72 2.58 2.77 1.84 4.56l-10.4 25.3zM38.57 31.8l16.18-5.92c.75-.28 1.16-1.12.9-1.9-.27-.76-1.1-1.16-1.86-.88l-22.32 8.16-1.98-4.18s0-.03 0-.04c-.05-.1-.1-.2-.14-.28L21.33 9.72c-.35-.73-1.2-1.03-1.94-.67-.75.37-1.05 1.25-.7 1.98l7.42 15.74-16.5 6.43c-.74.3-1.13 1.14-.85 1.9.15.4.45.7.8.85.33.14.7.15 1.07 0l16.74-6.5 2.04 4.3c.16.35.43.6.75.72.32.13.7.15 1.04 0l4.62-1.67L43 49.3c.15.36.44.62.77.76.36.14.76.15 1.15-.03.73-.34 1.07-1.22.74-1.95l-7.1-16.3z"/></svg>