<svg xmlns="http://www.w3.org/2000/svg" width="25" height="25" fill="none"><path fill="#404266" d="M5.1 16.62c2.46 2.95 5.43 5.27 8.82 6.9 1.3.62 3 1.35 4.93 1.47.12 0 .24 0 .36 0 1.3 0 2.33-.45 3.18-1.36 0 0 0-.02.02-.03.3-.35.64-.68 1-1.02.24-.24.5-.48.73-.73 1.1-1.15 1.1-2.6 0-3.72L21 15c-.53-.54-1.16-.83-1.82-.83-.66 0-1.3.3-1.84.84l-1.86 1.86c-.17-.1-.35-.18-.5-.27-.22-.1-.4-.2-.58-.32-1.7-1.07-3.22-2.47-4.7-4.27-.73-.92-1.23-1.7-1.58-2.5.5-.46.95-.92 1.4-1.37.14-.16.3-.32.46-.48.56-.56.86-1.2.86-1.86 0-.67-.3-1.32-.86-1.88L8.44 2.38c-.18-.18-.35-.36-.53-.54-.33-.35-.7-.72-1.04-1.04C6.33.27 5.7 0 5.04 0c-.66 0-1.3.27-1.85.8L1.25 2.74C.56 3.44.16 4.3.06 5.3-.03 6.52.2 7.83.8 9.42c.9 2.46 2.26 4.75 4.3 7.2zM1.32 5.4c.07-.7.33-1.27.83-1.76L4.08 1.7c.3-.28.64-.43.96-.43.3 0 .63.15.93.45.35.32.67.66 1.03 1.02.17.18.35.36.53.54l1.55 1.55c.32.32.48.65.48.97 0 .32-.16.64-.48.97-.16.16-.32.32-.48.48-.5.5-.94.95-1.43 1.4 0 0-.02 0-.03.02-.43.43-.36.84-.26 1.15 0 0 0 .02.02.04.4.96.95 1.87 1.82 2.96 1.55 1.9 3.2 3.4 5 4.54.2.15.45.26.67.38.2.1.4.2.56.3.02.02.04.03.06.04.17.1.34.13.5.13.42 0 .7-.26.77-.34l1.93-1.94c.3-.3.63-.46.95-.46.4 0 .7.24.92.46l3.12 3.12c.62.62.62 1.3-.02 1.95-.2.22-.44.45-.68.68-.37.35-.75.7-1.1 1.12-.58.65-1.3.95-2.2.95-.1 0-.2 0-.28 0-1.7-.12-3.28-.8-4.46-1.35-3.23-1.56-6.05-3.77-8.4-6.58-1.93-2.33-3.23-4.5-4.1-6.8-.53-1.44-.73-2.58-.65-3.62z"/></svg>