<svg xmlns="http://www.w3.org/2000/svg" width="93" height="61" fill="none"><path fill="#E7E7E7" d="M93 15.74c0-1.4-.42-2.83-1.34-4L84.3 2.36C83.06.8 81.18 0 79.3 0c-1.1 0-2.25.28-3.25.9l-7.2 4.46c-.74.48-2.04.8-3.3.8-.96 0-1.9-.2-2.52-.5L56 2.26c-1.14-.53-2.4-.76-3.68-.76-1.83 0-3.68.46-5.16 1.48l-.83.58c-.65-.33-1.65-.83-2.8-1.4-1.35-.65-2.95-.92-4.57-.93-1.46 0-2.93.23-4.2.77l-4.8 2.04c-.78.33-2.02.55-3.25.55s-2.46-.23-3.24-.56L18.66 2c-.88-.37-1.8-.53-2.74-.53-1.07 0-2.13.2-3.1.6-1 .4-1.9 1-2.64 1.8l-8.73 9.74C.48 14.7 0 16.05 0 17.38c0 1.6.68 3.2 2 4.3l8.15 6.92-3.87 4c-1.06 1.1-1.6 2.55-1.6 3.96 0 1.5.6 3.04 1.8 4.16l.78.74c.74.7 1.63 1.14 2.56 1.38-.47.85-.72 1.8-.72 2.72 0 1.5.6 3.04 1.8 4.16l.78.74c1.12 1.06 2.57 1.6 4 1.58.76 0 1.53-.15 2.26-.45.25 1.02.77 2 1.6 2.77l.78.74c1.12 1.07 2.57 1.6 4 1.6 1.12 0 2.25-.33 3.22-.97.28.9.76 1.76 1.5 2.46l.8.74c1.1 1.05 2.56 1.58 4 1.58 1.5 0 3.05-.6 4.18-1.78l3.42-3.55 4.64 4.27c1.1 1.02 2.54 1.53 3.94 1.53 1.55 0 3.1-.6 4.25-1.83l.74-.8c.65-.67 1.06-1.48 1.3-2.32l1.8 1.65c1.12 1.02 2.54 1.53 3.95 1.53 1.54 0 3.1-.62 4.25-1.83l.73-.8c.85-.9 1.33-2.02 1.48-3.16.5.12.97.2 1.45.2 1.55 0 3.1-.6 4.25-1.82l.74-.8c1.03-1.1 1.54-2.5 1.54-3.9 0-.43-.06-.86-.16-1.3 1.3-.16 2.53-.73 3.48-1.74l.74-.8c1.03-1.1 1.54-2.5 1.54-3.9 0-1.53-.6-3.07-1.84-4.2l-1.4-1.27 12.52-13.75C92.48 18.9 93 17.3 93 15.75zM11.26 39.9c-.66 0-1.3-.23-1.8-.7l-.8-.75c-.54-.5-.8-1.2-.8-1.88 0-.66.23-1.3.7-1.8l7.93-8.22c.5-.54 1.2-.8 1.9-.8.66 0 1.3.23 1.8.7l.8.75s.8 1.2.8 1.9c0 .52-.15 1.03-.46 1.47-.03.02-8.54 8.86-8.54 8.86-.46.32-1 .48-1.54.48zm6.33 8.2c-.53.54-1.22.8-1.92.8-.66 0-1.3-.23-1.82-.7l-.78-.75c-.55-.5-.82-1.2-.82-1.9 0-.64.24-1.28.72-1.8 0 0 10.56-10.92 10.64-11.02.5-.48 1.16-.73 1.83-.73.66 0 1.3.23 1.82.7l.78.76c.54.5.8 1.2.8 1.9 0 .64-.23 1.28-.7 1.8L17.58 48.1zm8.63 4.66c-.5.53-1.2.8-1.9.8-.67 0-1.3-.24-1.82-.72l-.78-.74c-.54-.5-.8-1.2-.8-1.9 0-.57.2-1.14.57-1.6l7.34-7.64c.5-.45 1.12-.68 1.76-.68.66 0 1.3.23 1.82.7l.8.76c.52.5.8 1.2.8 1.88 0 .66-.24 1.3-.73 1.8l-7.07 7.34zm13.96-.8l-4.46 4.62c-.52.54-1.2.8-1.9.8-.67 0-1.32-.23-1.83-.7l-.77-.75c-.54-.5-.8-1.2-.82-1.9.02-.65.25-1.3.74-1.8l4.45-4.62c.5-.53 1.2-.8 1.9-.8.66 0 1.3.24 1.82.72l.8.74c.53.5.8 1.2.8 1.9 0 .65-.24 1.3-.73 1.8zm38.73-12.57c0 .63-.24 1.26-.7 1.76l-.74.8c-.53.54-1.23.82-1.95.82-.64 0-1.28-.23-1.8-.7L61.32 30.64l-2.14 2.3L72.5 45.2c.54.52.82 1.2.83 1.92 0 .65-.24 1.28-.7 1.78l-.74.8c-.53.54-1.23.8-1.94.8-.65 0-1.3-.22-1.8-.68L55.72 38.37l-2.14 2.3L64.6 50.82c.55.5.82 1.18.82 1.88 0 .65-.23 1.28-.7 1.78l-.74.8c-.5.54-1.2.82-1.93.82-.65 0-1.3-.23-1.8-.7L49.24 45.28l-2.15 2.3.04.04 5.53 5.08c.5.5.74 1.15.74 1.8 0 .65-.24 1.28-.7 1.78l-.74.8c-.52.53-1.22.8-1.93.8-.65 0-1.3-.22-1.8-.68l-4.8-4.43c.42-.82.65-1.7.65-2.6 0-1.5-.6-3.03-1.8-4.15l-.78-.75c-1.12-1.05-2.56-1.58-4-1.57-.1 0-.22.02-.33.03 0-.02 0-.05 0-.07 0-1.5-1.78-4.16-1.78-4.16l-.8-.74c-.83-.8-1.85-1.28-2.9-1.48.2-.62.33-1.26.33-1.9 0-1.5-.6-3.03-1.8-4.16l-.78-.75c-1.12-1.06-2.57-1.58-4-1.58-.16 0-.33.03-.5.05-.04-1.45-.63-2.9-1.77-3.98l-.78-.74c-1.12-1.06-2.57-1.6-4-1.6-1.52 0-3.06.6-4.2 1.8l-1.86 1.93-8.28-7.03c-.6-.5-.9-1.2-.9-1.92 0-.6.2-1.2.65-1.7l8.75-9.72c.34-.4.86-.74 1.46-.98s1.3-.38 1.93-.37c.55 0 1.07.1 1.5.28l4.78 2.04c1.36.57 2.93.8 4.5.8 1.6 0 3.16-.23 4.5-.8L36 4.9c.74-.34 1.85-.53 2.96-.53 1.23 0 2.46.25 3.17.6.45.23.88.44 1.28.64l-4.88 3.43c-1.57 1.1-2.42 2.85-2.4 4.6-.02 1.18.36 2.37 1.1 3.38l.66.87c1.22 1.62 3.13 2.45 5.04 2.46 1.08 0 2.18-.27 3.16-.86L49 17.72c.6-.36 1.5-.6 2.43-.58 1.1 0 2.2.3 2.86.8l8.08 5.77c1.8 1.3 4.73 3.67 6.35 5.17l9.36 8.6c.55.52.82 1.2.83 1.92zM89 18.04L76.55 31.77l-5.66-5.2c-1.77-1.63-4.7-4-6.66-5.4l-8.08-5.78c-1.37-.98-3.05-1.4-4.7-1.4-1.42 0-2.84.3-4.07 1.04l-2.92 1.75c-.45.25-.98.4-1.53.4-.98 0-1.96-.46-2.5-1.2l-.65-.86c-.35-.47-.5-.98-.5-1.5 0-.8.36-1.56 1.07-2.05l8.64-6.06c.75-.54 2.08-.9 3.34-.9.88 0 1.72.17 2.3.45l7.03 3.38c1.2.57 2.55.8 3.9.8 1.76 0 3.53-.38 5-1.27l7.18-4.44c.45-.28 1-.43 1.58-.43.98 0 1.95.44 2.5 1.15l7.37 9.38c.43.54.67 1.3.67 2.1 0 .86-.3 1.73-.83 2.3z"/></svg>