<svg xmlns="http://www.w3.org/2000/svg" width="36" height="36" fill="none"><rect width="35" height="35" x=".5" y=".5" stroke="#404266" rx="17.5"/><path fill="#404266" d="M28.46 22.5l-2.6-2.62c-.73-.72-1.9-.72-2.62 0l-1.2 1.18c-.53.55-1.42.55-1.97 0l-5.14-5.14c-.55-.55-.55-1.43 0-1.98.2-.2.74-.74 1.2-1.2.7-.7.7-1.87 0-2.6l-2.62-2.6c-.7-.72-1.88-.72-2.6 0-.54.53-.7.7-.95.94-2.6 2.6-2.6 6.82 0 9.4l8.15 8.17c2.6 2.6 6.8 2.6 9.4 0l.96-.95c.72-.72.72-1.9 0-2.6zM11.76 8.4c.25-.23.64-.23.88 0l2.6 2.6c.25.25.25.64 0 .88l-.43.44-3.47-3.48.44-.43zm7.2 16.78l-8.14-8.16c-2-2-2.12-5.16-.34-7.3l3.47 3.47c-.92 1.03-.88 2.6.1 3.6l5.15 5.13c1 1 2.56 1.03 3.6.12l3.47 3.47c-2.14 1.77-5.28 1.68-7.3-.34zm8.63-.95l-.45.43-3.48-3.48.44-.43c.25-.24.64-.24.88 0l2.6 2.6c.25.25.25.64 0 .88z"/></svg>