<svg xmlns="http://www.w3.org/2000/svg" width="34" height="34" fill="none"><path fill="#404266" d="M26.9 21.06c-.7-.72-1.55-1.1-2.44-1.1-.9 0-1.74.37-2.46 1.1l-2.27 2.26c-.2-.1-.38-.2-.56-.3-.25-.12-.5-.24-.7-.37-2.13-1.35-4.07-3.1-5.92-5.38-.9-1.14-1.5-2.1-1.94-3.06.6-.53 1.14-1.1 1.68-1.63.2-.2.4-.4.6-.6 1.5-1.5 1.5-3.47 0-4.97l-1.96-1.96c-.23-.22-.46-.45-.67-.68-.43-.45-.9-.9-1.35-1.34-.7-.7-1.53-1.05-2.4-1.05-.9 0-1.73.36-2.45 1.05 0 0 0 0-.02.02L1.6 5.5C.66 6.42.13 7.54.02 8.83c-.17 2.1.45 4.05.92 5.33 1.16 3.13 2.9 6.04 5.5 9.16 3.14 3.75 6.93 6.7 11.26 8.8 1.66.78 3.87 1.7 6.33 1.87.15 0 .3 0 .45 0 1.66 0 3.06-.6 4.15-1.78 0 0 .02-.02.03-.04.37-.45.8-.86 1.26-1.3.3-.3.62-.6.93-.92.7-.74 1.1-1.6 1.1-2.48 0-.9-.4-1.75-1.12-2.46l-3.94-3.96zm2.56 7.56c-.28.3-.57.57-.88.87-.47.44-.94.9-1.4 1.43-.7.77-1.57 1.14-2.7 1.14-.1 0-.2 0-.32 0-2.13-.14-4.12-.98-5.6-1.7-4.07-1.95-7.64-4.74-10.6-8.28-2.46-2.96-4.1-5.7-5.2-8.62-.65-1.78-.9-3.17-.8-4.5.08-.83.4-1.52 1-2.12L5.4 4.4c.36-.32.74-.5 1.1-.5.46 0 .82.28 1.05.5 0 0 .02.02.03.03.43.4.85.83 1.3 1.28.2.24.44.47.67.7l1.96 1.97c.78.76.78 1.46 0 2.22-.2.2-.4.4-.6.6-.6.63-1.18 1.2-1.8 1.76-.02 0-.04.02-.04.04-.62.6-.5 1.22-.38 1.63 0 .02.02.04.02.06.5 1.22 1.23 2.4 2.32 3.77 2 2.45 4.1 4.35 6.4 5.8.3.2.6.34.88.5.26.12.5.24.7.37.04 0 .07.03.1.05.24.1.47.17.7.17.6 0 .98-.38 1.1-.5l2.46-2.45c.24-.25.63-.54 1.08-.54.45 0 .8.28 1.04.52 0 0 0 0 0 .02l3.97 3.95c.74.73.74 1.5 0 2.25zM18.38 8.1c1.88.3 3.6 1.2 4.96 2.56 1.36 1.36 2.24 3.07 2.57 4.95.1.48.5.8.96.8.06 0 .1 0 .17 0 .53-.1.88-.6.8-1.12-.4-2.28-1.47-4.35-3.12-6-1.63-1.64-3.7-2.7-6-3.1-.52-.1-1 .26-1.1.8-.1.5.24 1.02.78 1.1zM34 15c-.65-3.75-2.42-7.16-5.14-9.87C26.14 2.43 22.73.65 18.98 0c-.52-.08-1.02.28-1.1.8-.1.54.25 1.03.78 1.12 3.35.57 6.4 2.16 8.84 4.57 2.42 2.42 4 5.47 4.57 8.8.08.5.5.82.96.82.06 0 .1 0 .16-.02.52-.08.88-.58.8-1.1z"/></svg>