<svg xmlns="http://www.w3.org/2000/svg" width="57" height="74" fill="none"><path fill="#E7E7E7" d="M56.93 63.8c-1.17-6.32-3.03-12.06-5.52-17.07-2-4.03-4.4-7.6-7.18-10.6-3.06-3.32-5.87-5.2-7.54-6.16 5.9-9.2 6.06-17.5 6.06-17.6 0-2-1-3.82-2.6-5.05V1.45c0-.8-.66-1.45-1.46-1.45-.8 0-1.45.65-1.45 1.45V5.9c-.7-.17-1.4-.26-2.16-.26-2.78 0-5.24 1.3-6.6 3.28-1.34-1.97-3.8-3.28-6.57-3.28-.76 0-1.48.1-2.17.27V1.46c0-.8-.65-1.45-1.45-1.45-.8 0-1.45.65-1.45 1.45v5.87c-1.6 1.24-2.6 3.05-2.6 5.06 0 .08.16 8.4 6.06 17.6-1.68.96-4.47 2.85-7.52 6.16-2.77 3-5.2 6.56-7.2 10.6-2.48 5-4.34 10.74-5.5 17.06-.38 2 .74 3.97 2.66 4.68L7.7 70.3c.47.17.94.34 1.4.5.02 0 .04 0 .05 0 4.23 1.44 8.57 2.4 12.96 2.86.08 0 .15.02.22.02 2.06.2 4.12.32 6.18.32 7.04 0 14.1-1.23 20.8-3.7l4.96-1.82c1.92-.7 3.04-2.67 2.67-4.68zm-39.8-51.42c0-1.23.7-2.33 1.83-3.03.05-.03.1-.06.14-.1.8-.45 1.75-.72 2.8-.72 2.5 0 4.6 1.58 4.76 3.6.07.95.87 1.7 1.82 1.7.95 0 1.75-.75 1.82-1.7.16-2.02 2.25-3.6 4.77-3.6 1.03 0 1.98.26 2.76.7.06.06.13.1.2.13 1.1.7 1.8 1.8 1.8 3 0 .1-.32 8.2-6.02 16.7-.07.12-.14.22-.2.33-1.12.52-2.3.88-3.5 1.04.3-.4.63-.86.92-1.37.4-.7.77-1.5 1.03-2.36.22-.76-.22-1.56-1-1.8-.76-.2-1.56.23-1.8 1-.38 1.34-1.15 2.45-1.76 3.17-.5.57-.87.9-.9.92-.1.1-.2.22-.3.35-1-.2-1.98-.5-2.92-.96-.08-.12-.15-.22-.22-.33-5.7-8.52-6.04-16.62-6.04-16.7zm36.13 53.38L48.3 67.6c-.25.08-.48.16-.72.24-.72-3.1-2.82-10.97-6.63-17.07-.43-.68-1.32-.88-2-.46-.68.43-.9 1.32-.46 2 3.64 5.84 5.68 13.72 6.3 16.44-6.82 2.03-13.95 2.75-21 2.18.06-1.5.37-4.18 1.7-6.86.34-.72.04-1.58-.68-1.93-.72-.35-1.58-.06-1.94.66-1.48 3-1.87 6-1.96 7.8-3.27-.43-6.5-1.15-9.68-2.15.7-4.1 3.54-17.77 10.24-25.43.53-.6.47-1.52-.14-2.04-.6-.53-1.52-.46-2.04.14-7.03 8.02-9.98 21.56-10.85 26.38l-4.7-1.74c-.6-.2-.94-.82-.83-1.43 2.52-13.58 7.84-21.68 11.87-26.1 3.35-3.68 6.38-5.48 7.6-6.1 1.93.87 4 1.3 6.08 1.3 2.1 0 4.17-.43 6.1-1.3 2.77 1.4 15.2 9 19.5 32.2.1.6-.23 1.22-.82 1.43zM38.97 46.6c-.03-.13-.07-.27-.13-.4-.05-.13-.12-.26-.2-.38-.07-.12-.17-.23-.27-.33-.5-.52-1.26-.75-1.97-.6-.14.02-.27.06-.4.12-.14.05-.26.12-.38.2-.12.08-.23.17-.33.27s-.2.2-.3.32c-.06.12-.13.25-.2.38-.04.13-.08.27-.1.4-.04.15-.05.3-.05.44s0 .28.04.42c.02.14.06.28.12.4.05.15.12.27.2.4.07.1.17.23.27.33s.2.18.32.26c.12.08.24.14.37.2.13.05.26.1.4.12.14.03.3.05.43.05.14 0 .3-.02.43-.05.14-.02.27-.07.4-.12.14-.06.26-.12.38-.2.12-.08.23-.17.33-.27s.2-.23.27-.35c.08-.12.15-.24.2-.38.06-.13.1-.27.13-.4.03-.15.04-.3.04-.43 0-.14 0-.3-.03-.43zM34.5 20.82c-.03-.14-.07-.27-.13-.4-.05-.14-.12-.27-.2-.4-.08-.1-.17-.22-.27-.32-.5-.5-1.26-.74-1.97-.6-.14.03-.27.07-.4.13-.14.05-.26.12-.38.2-.12.08-.23.17-.33.27s-.2.2-.28.33c-.08.12-.14.25-.2.38-.05.15-.1.28-.12.42-.03.14-.04.3-.04.43 0 .14 0 .3.04.43.03.14.07.28.12.4.06.14.12.27.2.4.08.1.18.22.28.32.1.1.2.2.33.27.12.08.24.15.37.2.14.06.27.1.4.13.15.02.3.04.44.04s.3-.02.42-.04c.14-.03.28-.07.4-.13.15-.05.27-.12.4-.2.1-.08.22-.17.32-.27s.2-.22.27-.33c.08-.12.15-.25.2-.38.06-.14.1-.28.13-.42.03-.14.04-.3.04-.43 0-.14 0-.3-.04-.43z"/></svg>