<svg width="50" height="71" viewBox="0 0 50 71" fill="none" xmlns="http://www.w3.org/2000/svg">
<path d="M49.5893 34.3335L41.227 20.252L49.6568 6.0571C50.1059 5.30094 50.1098 4.36601 49.6673 3.60633C49.2248 2.84665 48.4034 2.37801 47.5138 2.37801H4.96167C4.92532 1.05894 3.83078 0 2.48262 0C1.11142 0 0 1.09453 0 2.4449V68.5551C0 69.9055 1.11142 71 2.48262 71C3.85382 71 4.96524 69.9055 4.96524 68.5551V38.1262C4.96683 38.1264 47.516 38.1262 47.5174 38.1262C49.0476 38.1262 50 37.0317 50 35.6813C50 35.1831 49.8489 34.72 49.5893 34.3335ZM4.96524 33.2364V7.26762H43.1855L36.2075 19.0176C35.7547 19.7801 35.7547 20.7238 36.2075 21.4862L43.1855 33.2362L4.96524 33.2364Z" fill="#F0F0F0"/>
</svg>
