<svg xmlns="http://www.w3.org/2000/svg" width="72" height="86" fill="none"><path fill="#F4F4F4" d="M71.76 71.56L59.38 49.48c1.25-.6 2-1.95 1.92-3.48l-.92-7.8 5.27-5.62c1.17-1.2 1.26-3.22.08-4.67l-5.27-5.76 1.1-7.9c.16-1.7-1-3.4-2.7-3.74l-7.6-1.52-3.68-6.88C46.82.48 44.98-.2 43.3.48h-.07l-7.03 3.3L29.34.4c-.76-.43-1.68-.5-2.5-.26-.85.26-1.52.85-1.94 1.62l-3.76 6.88L13.52 10c-1.75.33-2.92 1.95-2.76 3.82l.92 7.8-5.27 5.6c-1.16 1.2-1.24 3.24-.07 4.68l5.27 5.78-1.1 7.9c-.16 1.53.77 2.97 2.2 3.56L.2 71.56c-.33.5-.25 1.2 0 1.7.34.5.84.85 1.42.85h13.4l6.1 10.8c.33.5.83.85 1.42.85.6 0 1.17-.34 1.42-.85l11.97-20.73L47.9 85.15c.35.5.85.85 1.44.85.58 0 1.17-.34 1.42-.85l6.1-11.04h13.4c.58 0 1.16-.33 1.4-.84.43-.5.43-1.2.1-1.7zm-49.12 9.1l-5.18-9.1c-.34-.5-.84-.85-1.43-.85H4.5L16.02 50l4.77.84 3.68 6.88c.76 1.6 2.6 2.3 4.27 1.6h.1l3.42-1.6 1.67 2.97-11.3 19.95zm4.86-24.38c-.1 0-.1 0-.1 0l-3.67-7.05c-.5-.85-1.34-1.53-2.34-1.6l-7.7-1.46 1.08-7.8c.17-1.03-.17-2.13-.84-2.8l-5.18-5.8 5.27-5.6c.75-.76 1.08-1.78.92-2.8l-.92-7.72s0-.1.08-.17l7.62-1.36c.92-.17 1.84-.77 2.35-1.7l3.76-6.88 6.86 3.4c.9.5 2.08.5 3 0l6.95-3.23c.08 0 .08 0 .08 0l3.68 7.06c.52.85 1.35 1.53 2.27 1.6l7.62 1.54-1.1 7.8c-.17 1.03.17 2.14.84 2.82l5.27 5.77-5.35 5.6c-.75.76-1.08 1.78-.92 2.8l.92 7.8-7.53 1.28c-.92.17-1.84.77-2.34 1.7l-3.77 6.88-6.85-3.4c-.92-.5-2.1-.5-3 0L27.5 56.3zM55.94 70.7c-.58 0-1.17.35-1.42.86l-5.2 9.34-11.78-20.72c-.1-.25-.17-.42-.34-.6l-1.84-3.3.6-.26 6.85 3.4c.5.25 1 .34 1.5.34 1.2 0 2.36-.6 2.94-1.7L51 51.18l5.03-.93L67.5 70.7H55.93zM52.68 29.95c0-9.34-7.53-16.98-16.73-16.98S19.2 20.6 19.2 29.95s7.54 17 16.75 17c9.2 0 16.73-7.66 16.73-17zm-16.73 13.6c-7.37 0-13.4-6.13-13.4-13.6s6.03-13.6 13.4-13.6c7.36 0 13.38 6.13 13.38 13.6s-6.02 13.6-13.38 13.6z"/></svg>