<svg xmlns="http://www.w3.org/2000/svg" width="55" height="37" fill="none"><path fill="#fc0" d="M38.42 19.58h-1.66l-.82 4.35h1.8c.68.04 1.34-.2 1.86-.66.23-.23.4-.5.52-.83.12-.32.17-.66.15-1 0-1.24-.62-1.86-1.85-1.86zM39.5 13.06h-1.53l-.7 3.7h1.52c.8 0 1.4-.18 1.82-.55.2-.18.37-.42.48-.7.1-.28.15-.58.13-.88 0-1.04-.58-1.56-1.73-1.56zM4.06 0L0 37h50.8L55 0H4.06zm18.66 26.63l-.04.22h-3.54l-.22-8.23-.02-1.6c0-.65 0-1.26.04-1.8h-.04c-.33 1.17-.7 2.3-1.16 3.42l-3.27 8.2h-3.42l-.45-16.7h2.9l.06 9.12c0 .4-.02 1.06-.04 1.97-.03.9-.07 1.58-.1 1.98h.05c.15-.47.38-1.16.68-2.05.3-.9.5-1.44.6-1.66l3.74-9.35h2.7l.22 9.97c0 1.12-.03 2.15-.1 3.1h.07c.28-.97.72-2.3 1.3-3.97l3.35-9.1h2.4-.02.73l-1.3 3.32c.14-.1.26-.16.38-.23.42-.24.9-.37 1.36-.38.2-.02.42 0 .62.1.2.08.37.2.5.37.16.17.27.37.34.6.07.22.1.46.07.7-.04.74-.28 1.46-.7 2.04-.74 1.06-1.58 2.04-2.5 2.9l-4.04 4.06-1.18 3zm20.84-9.94c-.62.78-1.46 1.3-2.38 1.47v.07c.62.16 1.2.55 1.6 1.1.42.58.64 1.32.6 2.06 0 1.75-.5 3.1-1.54 4.04-1.03.94-2.45 1.4-4.27 1.4H32.3l.56-2.96H27.2v-.1l2.73-2.55c.96-.85 1.86-1.8 2.7-2.8.5-.64.9-1.36 1.22-2.14.28-.74.42-1.52.42-2.3.02-.56-.08-1.1-.27-1.62-.2-.5-.48-.97-.85-1.33-.43-.42-.93-.72-1.47-.9h8.06c1.54 0 2.7.32 3.5.94.78.6 1.17 1.54 1.17 2.77.04 1.03-.26 2.04-.84 2.83z"/></svg>